<svg width="57" height="60" viewBox="0 0 57 60" fill="none" xmlns="http://www.w3.org/2000/svg">
<path d="M40 21.5616C40 31.1182 34.9 39 28.5 39C22.1 39 17 31.1182 17 21.4631C17 20.6749 17 19.7882 17.1 19L19.9 21.7586H37.1L39.9 19C40 19.8867 40 20.6749 40 21.5616Z" stroke="#2F2483" stroke-width="2" stroke-miterlimit="10"/>
<path d="M42 16.2913C42 16.5971 42 16.801 42 17.1068L37.0818 22H19.8178L15 17.1068C15 16.801 15 16.5971 15 16.2913C15 7.8301 21.0223 1 28.5502 1C36.0781 1 42 7.8301 42 16.2913Z" stroke="#2F2483" stroke-width="2" stroke-miterlimit="10"/>
<path d="M55 59C53.1759 51.1477 43.7514 45.0067 31.8948 44L27.9426 47.9262L24.0918 44.1007C12.7419 45.4094 3.72275 51.349 2 59H55Z" stroke="#2F2483" stroke-width="2" stroke-miterlimit="10"/>
<path d="M25 1V7" stroke="#2F2483" stroke-width="2" stroke-miterlimit="10"/>
<path d="M31 1V7" stroke="#2F2483" stroke-width="2" stroke-miterlimit="10"/>
<path d="M30 53H42" stroke="#2F2483" stroke-width="2" stroke-miterlimit="10"/>
</svg>
