<svg width="87" height="63" viewBox="0 0 87 63" fill="none" xmlns="http://www.w3.org/2000/svg">
<path d="M57.4873 1.68481V53.1958H28.4367C28.4367 52.9269 28.4367 52.6579 28.4367 52.3889C28.4367 47.5471 24.5364 43.5123 19.5601 43.5123C14.7183 43.5123 10.6835 47.4126 10.6835 52.3889C10.6835 52.6579 10.6835 52.9269 10.6835 53.1958H1V1.68481H57.4873Z" stroke="#2F2483" stroke-width="2" stroke-miterlimit="10"/>
<path d="M85.9999 24.8178V53.196H76.3164C76.3164 52.927 76.3164 52.658 76.3164 52.389C76.3164 47.5472 72.2816 43.5124 67.4398 43.5124C62.5981 43.5124 58.5633 47.4127 58.5633 52.389C58.5633 52.658 58.5633 52.927 58.5633 53.196H57.4873V15.1343H76.3164L85.9999 24.8178Z" stroke="#2F2483" stroke-width="2" stroke-miterlimit="10"/>
<path d="M28.4367 52.5233C28.4367 52.7923 28.4367 53.0613 28.4367 53.3303C28.0333 57.903 24.2674 61.3999 19.5602 61.3999C14.8529 61.3999 11.0871 57.7686 10.6836 53.3303C10.6836 53.0613 10.6836 52.7923 10.6836 52.5233C10.6836 47.6815 14.7184 43.6467 19.5602 43.6467C24.5364 43.6467 28.4367 47.547 28.4367 52.5233Z" stroke="#2F2483" stroke-width="2" stroke-miterlimit="10"/>
<path d="M76.3166 52.5233C76.3166 52.7923 76.3166 53.0613 76.3166 53.3303C75.9131 57.903 72.1473 61.3999 67.4401 61.3999C62.7328 61.3999 58.967 57.7686 58.5635 53.3303C58.5635 53.0613 58.5635 52.7923 58.5635 52.5233C58.5635 47.6815 62.4638 43.6467 67.4401 43.6467C72.2818 43.6467 76.3166 47.547 76.3166 52.5233Z" stroke="#2F2483" stroke-width="2" stroke-miterlimit="10"/>
<path d="M67.4398 15.134C67.4398 15.134 67.0363 5.58496 57.4873 5.58496" stroke="#2F2483" stroke-width="2" stroke-miterlimit="10"/>
<path d="M1 47.4126H12.2975" stroke="#2F2483" stroke-width="2" stroke-miterlimit="10"/>
<path d="M26.8223 47.4126H57.4868" stroke="#2F2483" stroke-width="2" stroke-miterlimit="10"/>
<path d="M74.7021 47.4126H85.9996" stroke="#2F2483" stroke-width="2" stroke-miterlimit="10"/>
<path d="M64.2119 31.5422H79.2752" stroke="#2F2483" stroke-width="2" stroke-miterlimit="10"/>
<path d="M1 61.3999H85.9999" stroke="#2F2483" stroke-width="2" stroke-miterlimit="10"/>
</svg>
