<svg width="15" height="22" viewBox="0 0 15 22" fill="none" xmlns="http://www.w3.org/2000/svg">
<path d="M14 7.45161C14 8.24881 13.6156 9.50215 12.9168 11.0494C12.2362 12.5563 11.3205 14.2091 10.3927 15.7543C9.46688 17.2962 8.53955 18.7135 7.84284 19.7463C7.721 19.927 7.60631 20.0957 7.5 20.2512C7.3937 20.0957 7.279 19.927 7.15716 19.7463C6.46045 18.7135 5.53312 17.2962 4.60732 15.7543C3.67952 14.2091 2.76383 12.5563 2.08324 11.0494C1.38444 9.50215 1 8.24881 1 7.45161C1 3.89458 3.90404 1 7.5 1C11.096 1 14 3.89458 14 7.45161Z" stroke="white" stroke-width="2"/>
</svg>
