<svg width="271" height="40" viewBox="0 0 271 40" fill="none" xmlns="http://www.w3.org/2000/svg">
<path fill-rule="evenodd" clip-rule="evenodd" d="M28.8447 39.1527C20.8671 34.2797 16.2693 29.7211 18.3521 15.9668C14.5008 16.1633 9.74577 21.665 9.70647 27.4811C9.54928 41.5892 22.7534 38.799 28.8447 39.1527Z" fill="white"/>
<path fill-rule="evenodd" clip-rule="evenodd" d="M41.8132 18.0496C41.8132 16.792 28.6483 5.63137 26.8406 4.13802C23.0798 7.44569 16.3804 13.3786 11.3503 17.8331C7.6552 21.1054 4.86095 23.5799 4.79438 23.6299L0 23.5513L0.392981 23.2369H0.353681L22.9108 3.46997V3.50926L26.9192 0.0117188L53.4455 23.6692H49.0834L47.6293 22.8046C47.2364 28.385 39.5732 37.9737 34.4645 39.1919C31.1634 38.2095 27.548 36.7555 25.3866 33.3758C26.6834 33.3758 28.0982 33.1401 30.3382 32.5506C35.4076 31.6467 41.8132 23.6692 41.8132 18.0496ZM20.3957 20.7218C18.7059 31.6467 22.3999 35.2621 28.8448 39.1526C28.1132 39.1175 27.2551 39.1365 26.3249 39.157C21.0098 39.2743 13.3396 39.4435 13.44 29.8783C13.4793 25.2411 17.2912 20.879 20.3957 20.7218Z" fill="white"/>
<path fill-rule="evenodd" clip-rule="evenodd" d="M28.8452 39.1534C24.0116 36.3632 21.2607 33.7695 22.5182 25.9492C20.1997 26.0671 17.3309 29.211 17.2916 32.512C17.213 40.5681 25.1512 38.9569 28.8452 39.1534Z" fill="white"/>
<path fill-rule="evenodd" clip-rule="evenodd" d="M28.8452 39.1534C24.0116 36.3632 21.2607 33.7695 22.5182 25.9492C20.1997 26.0671 17.3309 29.211 17.2916 32.512C17.213 40.5681 25.1512 38.9569 28.8452 39.1534Z" fill="white"/>
<path fill-rule="evenodd" clip-rule="evenodd" d="M123.081 29.2109C127.64 29.2109 131.373 25.9491 131.373 19.8186C131.373 14.5134 128.229 10.8193 123.356 10.8193C118.601 10.8193 115.064 14.5134 115.064 20.1723C115.064 25.5561 118.366 29.2109 123.081 29.2109ZM123.238 27.3245C119.623 27.3245 117.54 23.9056 117.54 20.0937C117.54 16.2032 119.387 12.7057 123.238 12.7057C127.09 12.7057 128.937 16.3997 128.937 19.9365C128.937 23.9842 126.854 27.3245 123.238 27.3245ZM102.096 11.2909C103.55 11.0552 105.043 10.9372 106.497 10.9372C108.777 10.9372 110.427 11.4874 111.488 12.4306C112.549 13.3737 113.1 14.7491 113.06 16.1639C113.06 17.7751 112.589 19.0327 111.685 19.9758C110.467 21.2727 108.502 21.9407 106.222 21.9407C105.594 21.9407 104.965 21.9014 104.375 21.7835V28.9358H102.057L102.096 11.2909ZM104.375 19.8972C105.004 20.0544 105.633 20.0937 106.301 20.0937C109.091 20.0937 110.781 18.7576 110.781 16.2818C110.781 13.9239 109.13 12.7842 106.576 12.7842C105.829 12.745 105.122 12.8236 104.415 12.9807V19.8972H104.375ZM66.0597 11.0944V13.02H58.9075V28.9358H56.5889V11.0944H66.0597ZM70.186 11.0944V18.6003C70.186 21.4298 70.1467 23.7484 69.9895 26.1456L70.0288 26.1849C70.9327 24.3379 72.033 22.4123 73.3299 20.2902L79.1067 11.0944H81.4253V28.9358H79.2639V21.3119C79.2639 18.4431 79.3032 16.3211 79.4604 14.0811L79.3818 14.0418C78.3993 16.1246 77.299 18.1288 76.0807 20.0544L70.5004 28.9358H68.0246V11.0944H70.186ZM97.6161 27.0494V11.0944H87.5951V15.6137C87.5951 18.679 87.3593 21.0761 86.7698 23.1196C86.3376 24.4951 85.7481 25.7919 85.0407 27.0494L83.7046 27.0887L83.8618 33.1799H85.6695L85.8267 28.9358H97.0659L97.2231 33.1799H99.0308L99.188 27.0887L97.6161 27.0494ZM88.8919 23.6305C89.5207 21.6263 89.7958 19.2291 89.7958 16.3604V12.9807H95.2975V27.0101H87.4379C88.0274 25.9491 88.5382 24.8095 88.8919 23.6305Z" fill="white"/>
<path fill-rule="evenodd" clip-rule="evenodd" d="M259.799 18.6006V11.0947H257.599V28.936H260.075L265.655 20.0546C266.873 18.129 268.013 16.1248 268.956 14.042L269.035 14.0813C268.877 16.3213 268.838 18.4434 268.838 21.3122V28.936H270.999V11.0947H268.72L262.943 20.2904C261.646 22.4125 260.546 24.3381 259.642 26.1851L259.603 26.1459C259.76 23.7486 259.799 21.4301 259.799 18.6006ZM264.319 9.01183C263.061 9.01183 262.825 8.18658 262.708 7.36133H260.9C261.057 9.09046 262.079 10.1908 264.24 10.1908C266.52 10.1908 267.581 9.09046 267.698 7.36133H265.93C265.812 8.22587 265.576 9.01183 264.319 9.01183ZM146.817 28.3465C145.992 28.7788 144.263 29.2111 142.102 29.2111C137.071 29.2111 133.299 26.0279 133.299 20.1726C133.299 14.5922 137.071 10.8196 142.612 10.8196C144.813 10.8196 146.228 11.2911 146.857 11.6055L146.307 13.4919C145.167 12.981 143.949 12.7452 142.73 12.7452C138.565 12.7452 135.775 15.4174 135.775 20.0939C135.775 24.456 138.29 27.2462 142.612 27.2462C143.909 27.2462 145.167 27.0104 146.385 26.4995L146.817 28.3465ZM162.576 11.0947V28.936H160.257V13.0203H151.965V28.936H149.725V11.0947H162.576ZM168.903 20.5655H175.819V18.6399H168.903V13.0203H176.252V11.0947H166.624V28.8967H176.605V26.9711H168.903V20.5655ZM181.911 11.0947V26.9711H190.085V11.0947H192.403V27.0497L193.975 27.089L193.818 33.2195H192.01L191.853 28.936H179.631V11.0947H181.911ZM204.586 29.2111C206.747 29.2111 208.437 28.7788 209.301 28.3465L208.791 26.4995C207.612 27.0104 206.354 27.2462 205.057 27.2462C200.734 27.2462 198.219 24.456 198.219 20.0939C198.219 15.4174 201.01 12.7452 205.175 12.7452C206.433 12.7452 207.651 12.981 208.791 13.4919L209.341 11.6055C208.712 11.2911 207.337 10.8196 205.097 10.8196C199.555 10.8196 195.783 14.5922 195.783 20.1726C195.783 26.0279 199.555 29.2111 204.586 29.2111ZM215.589 13.0596H210.166V11.0947H223.37V13.0596H217.908V28.936H215.589V13.0596ZM229.736 10.9375C228.282 10.9375 226.789 11.0554 225.335 11.2912L225.296 28.9361H227.614V21.7838C228.204 21.9017 228.833 21.941 229.461 21.941C231.741 21.941 233.706 21.2729 234.924 19.9761C235.828 19.0329 236.299 17.7754 236.299 16.1642C236.339 14.7494 235.788 13.374 234.727 12.4308C233.666 11.4877 232.016 10.9375 229.736 10.9375ZM229.54 20.094C228.911 20.094 228.282 20.0546 227.654 19.8975V12.981C228.361 12.8238 229.108 12.7452 229.815 12.7845C232.369 12.7845 234.02 13.9241 234.02 16.282C234.02 18.7578 232.33 20.094 229.54 20.094ZM254.651 19.8189C254.651 25.9494 250.918 29.2111 246.36 29.2111C241.644 29.2111 238.343 25.5564 238.343 20.1726C238.343 14.5136 241.88 10.8196 246.635 10.8196C251.508 10.8196 254.651 14.5136 254.651 19.8189ZM240.819 20.0939C240.819 23.9059 242.862 27.3248 246.517 27.3248C250.171 27.3248 252.215 23.9845 252.215 19.9367C252.215 16.3999 250.368 12.7059 246.517 12.7059C242.666 12.7059 240.819 16.2034 240.819 20.0939Z" fill="white"/>
</svg>
