<svg width="150" height="29" viewBox="0 0 150 29" fill="none" xmlns="http://www.w3.org/2000/svg">
<path fill-rule="evenodd" clip-rule="evenodd" d="M32.9994 5.1386C32.9994 4.37784 33.0392 3.7314 33.1186 3.19929C33.2019 2.66676 33.329 2.21935 33.4997 1.85665C33.5845 1.67654 33.681 1.51452 33.7894 1.37018C33.8991 1.2242 34.021 1.09672 34.1549 0.987337L34.2147 0.940047C34.2394 0.921131 34.2643 0.902626 34.2898 0.884533C34.3565 0.836831 34.426 0.791597 34.4984 0.749241C34.6878 0.637801 34.8969 0.543632 35.1257 0.467145C35.5069 0.340901 35.9457 0.24632 36.442 0.183404C36.9383 0.120076 37.5001 0.0592156 38.1275 0V0.969655C37.4604 1.01695 36.8748 1.0741 36.3705 1.14113C36.0682 1.17897 35.7951 1.24065 35.5514 1.32659C35.3885 1.38416 35.2387 1.45243 35.1019 1.53138C34.9018 1.64447 34.7311 1.78839 34.5897 1.96275C34.4896 2.0857 34.4043 2.22387 34.3336 2.37726C34.1628 2.74777 34.0774 3.25644 34.0774 3.90288C34.3356 3.65039 34.6472 3.45136 35.0125 3.30538C35.3778 3.1557 35.757 3.08085 36.1501 3.08085C37.7582 3.08085 38.5623 4.02501 38.5623 5.91333C38.5623 6.93028 38.332 7.73051 37.8714 8.31403C37.4148 8.89385 36.7675 9.18335 35.9297 9.18335C34.945 9.18335 34.2105 8.83833 33.7261 8.14872C33.2416 7.45869 32.9994 6.45532 32.9994 5.1386ZM34.0655 5.39314C34.0655 6.33524 34.2284 7.06269 34.5539 7.57507C34.8835 8.08745 35.3461 8.34364 35.9416 8.34364C36.4301 8.34364 36.8112 8.11911 37.0852 7.66965C37.3631 7.21607 37.5021 6.64654 37.5021 5.96062C37.5021 5.28252 37.375 4.77384 37.1209 4.435C36.8708 4.09615 36.4697 3.92632 35.9178 3.92632C35.5962 3.92632 35.2686 4.01514 34.9351 4.19238C34.6016 4.37003 34.3157 4.60072 34.0774 4.88446L34.0655 5.1386V5.39314ZM0.742211 8.99994V0.815859H3.18412C4.21253 0.815859 4.95702 1.02681 5.41758 1.44873C5.87815 1.87064 6.10854 2.53105 6.10854 3.42957C6.10854 4.41526 5.87422 5.12873 5.40568 5.57038C4.94117 6.00791 4.18478 6.22668 3.13648 6.22668H1.84403V8.99994H0.742211ZM1.84403 5.23318H2.90423C3.48388 5.23318 3.90676 5.17807 4.17287 5.06787C4.34092 4.99672 4.4804 4.89968 4.5916 4.77672C4.65901 4.70188 4.71596 4.61758 4.76245 4.52382C4.8895 4.27133 4.95308 3.91481 4.95308 3.45342C4.95308 2.88182 4.81008 2.46403 4.5242 2.19961C4.23831 1.93561 3.74999 1.80361 3.05903 1.80361H1.84403V5.23318ZM7.22817 7.25555C7.22817 6.82994 7.31163 6.47711 7.47834 6.19707C7.64908 5.91333 7.89324 5.69045 8.21092 5.52884C8.53253 5.36353 8.99714 5.2451 9.60464 5.17437L11.1412 5.03826V4.73642C11.1412 4.25941 11.0062 3.93413 10.7363 3.76101C10.4702 3.58748 10.1009 3.50071 9.62845 3.50071C9.20754 3.50071 8.882 3.57349 8.65171 3.71948C8.42536 3.86546 8.26259 4.02296 8.16329 4.19238L7.32354 3.68411C7.51406 3.34116 7.80399 3.0788 8.19311 2.89745C8.58617 2.7124 9.07252 2.61947 9.65227 2.61947C10.5496 2.61947 11.1928 2.78108 11.5819 3.1047C11.9711 3.42792 12.1656 3.98759 12.1656 4.78371V8.99994H11.1412V8.22562C10.8236 8.50155 10.5039 8.73018 10.1823 8.91153C9.8607 9.09288 9.49736 9.18335 9.0924 9.18335C8.49681 9.18335 8.03624 9.00406 7.71059 8.64547C7.38898 8.28278 7.22817 7.81933 7.22817 7.25555ZM8.28837 7.23211C8.28837 7.60262 8.38167 7.86868 8.56825 8.03029C8.75495 8.1919 9.03483 8.27291 9.40811 8.27291C9.56291 8.27291 9.71574 8.24536 9.86671 8.18984C10.0176 8.13104 10.1665 8.0599 10.3134 7.97724C10.3734 7.94188 10.4324 7.90487 10.4904 7.86621C10.5744 7.80988 10.6564 7.75025 10.7363 7.68733C10.8752 7.57713 11.0102 7.47062 11.1412 7.36781V5.85412L10.1407 5.9487C9.46164 6.00791 8.98326 6.13991 8.70524 6.34511C8.42733 6.5462 8.28837 6.84187 8.28837 7.23211ZM14.28 7.53354L13.4343 8.04221C13.6288 8.37325 13.8989 8.64712 14.2443 8.86424C14.5897 9.07684 15.0682 9.18335 15.6796 9.18335C17.3791 9.18335 18.2288 8.57228 18.2288 7.35013C18.2288 6.93233 18.1295 6.60336 17.931 6.36279C17.8435 6.25506 17.7515 6.16294 17.6548 6.08604C17.5319 5.98817 17.4017 5.91457 17.2639 5.86604C17.5259 5.78339 17.7543 5.62548 17.9488 5.39314C18.1434 5.15628 18.2407 4.8528 18.2407 4.48229C18.2407 3.91069 18.0282 3.45753 17.6034 3.12239C17.1825 2.78724 16.5531 2.61947 15.7154 2.61947C14.691 2.61947 13.9604 2.9982 13.5236 3.75484L14.3634 4.26352C14.5183 4.02296 14.699 3.83585 14.9054 3.7018C15.1119 3.56774 15.3859 3.50071 15.7273 3.50071C16.7358 3.50071 17.2401 3.83955 17.2401 4.51765C17.2401 4.80962 17.1309 5.02058 16.9125 5.15052C16.8193 5.20604 16.7038 5.24962 16.5659 5.2817C16.3804 5.32447 16.1545 5.34585 15.8881 5.34585H14.5837V6.17939H15.9477C16.8013 6.17939 17.2281 6.53427 17.2281 7.24404C17.2281 7.59851 17.0833 7.86292 16.7934 8.03605C16.6361 8.13145 16.454 8.20053 16.2475 8.24371C16.0786 8.27866 15.8932 8.29635 15.6915 8.29635C15.358 8.29635 15.086 8.23549 14.8756 8.11294C14.6652 7.98711 14.4666 7.79384 14.28 7.53354ZM19.8726 11.3357V2.79711H20.8971V3.41805C21.1313 3.19312 21.4132 3.00396 21.7428 2.85016C21.9102 2.77203 22.0838 2.71364 22.2635 2.67539C22.4376 2.63797 22.6174 2.61947 22.8029 2.61947C23.5454 2.61947 24.1231 2.89951 24.536 3.45918C24.949 4.01514 25.1555 4.81332 25.1555 5.85412C25.1555 6.87147 24.9312 7.68157 24.4825 8.28442C24.0378 8.88398 23.4243 9.18335 22.6421 9.18335C22.0188 9.18335 21.437 8.95265 20.8971 8.49168V11.3357H19.8726ZM20.8971 7.60468C21.4291 8.05003 21.9651 8.27291 22.5051 8.27291C22.9697 8.27291 23.3509 8.07963 23.6487 7.69309C23.9465 7.30695 24.0954 6.70164 24.0954 5.87797C24.0954 4.30875 23.5991 3.52415 22.6064 3.52415C22.3944 3.52415 22.1884 3.55828 21.9882 3.62695C21.9609 3.63641 21.9336 3.64628 21.9065 3.65697C21.8812 3.66684 21.8559 3.67753 21.8306 3.68864C21.7771 3.71249 21.724 3.73839 21.6713 3.76677C21.6372 3.78527 21.6037 3.80378 21.5705 3.82269C21.538 3.84161 21.506 3.86094 21.4745 3.88026C21.2583 4.0135 21.0658 4.16113 20.8971 4.32274V7.60468ZM26.7517 6.19707C26.5849 6.47711 26.5015 6.82994 26.5015 7.25555C26.5015 7.81933 26.6623 8.28278 26.984 8.64547C27.3096 9.00406 27.7702 9.18335 28.3658 9.18335C28.7707 9.18335 29.1341 9.09288 29.4557 8.91153C29.7773 8.73018 30.0969 8.50155 30.4146 8.22562V8.99994H31.439V4.78371C31.439 3.98759 31.2444 3.42792 30.8553 3.1047C30.4662 2.78108 29.823 2.61947 28.9256 2.61947C28.3459 2.61947 27.8595 2.7124 27.4664 2.89745C27.293 2.97805 27.1395 3.0751 27.0056 3.18777C26.8388 3.32841 26.7025 3.49372 26.5968 3.68411L27.4367 4.19238C27.5359 4.02296 27.6987 3.86546 27.925 3.71948C28.1553 3.57349 28.4809 3.50071 28.9018 3.50071C29.3743 3.50071 29.7435 3.58748 30.0095 3.76101C30.2796 3.93413 30.4146 4.25941 30.4146 4.73642V5.03826L28.8779 5.17437C28.2704 5.2451 27.8059 5.36353 27.4843 5.52884C27.1666 5.69045 26.9225 5.91333 26.7517 6.19707ZM27.8416 8.03029C27.655 7.86868 27.5617 7.60262 27.5617 7.23211C27.5617 6.84187 27.7007 6.5462 27.9786 6.34511C28.2565 6.13991 28.735 6.00791 29.414 5.9487L30.4146 5.85412V7.36781C30.2835 7.47062 30.1485 7.57713 30.0095 7.68733C29.8746 7.79384 29.7336 7.89047 29.5867 7.97724C29.4398 8.0599 29.2909 8.13104 29.14 8.18984C29.0892 8.20835 29.0382 8.22397 28.9869 8.23631C28.9287 8.2507 28.8701 8.26057 28.8113 8.26633C28.7681 8.27085 28.7249 8.27291 28.6814 8.27291C28.3082 8.27291 28.0282 8.1919 27.8416 8.03029ZM40.4443 3.43574C39.9718 3.97978 39.7355 4.80551 39.7355 5.91333C39.7355 7.00142 39.9718 7.81933 40.4443 8.36749C40.9169 8.91153 41.5998 9.18335 42.4932 9.18335C43.3865 9.18335 44.0656 8.90742 44.5301 8.35556C44.9986 7.80371 45.2329 6.98949 45.2329 5.91333C45.2329 4.82525 45.0006 4.00527 44.5361 3.45342C44.0715 2.89745 43.3906 2.61947 42.4932 2.61947C41.6038 2.61947 40.9208 2.89169 40.4443 3.43574ZM41.1948 7.71118C40.9288 7.32052 40.7957 6.72138 40.7957 5.91333C40.7957 5.07362 40.9347 4.46255 41.2126 4.08012C41.4906 3.69398 41.9174 3.50071 42.4932 3.50071C43.053 3.50071 43.472 3.69193 43.7499 4.07436C44.0318 4.45679 44.1728 5.06951 44.1728 5.91333C44.1728 6.72919 44.0338 7.33039 43.7558 7.71694C43.4819 8.10307 43.061 8.29635 42.4932 8.29635C41.8976 8.29635 41.4647 8.10143 41.1948 7.71118ZM45.8404 3.61297V2.79711H50.8433V3.61297H48.8422V8.99994H47.8416V3.61297H45.8404ZM51.9512 2.79711V8.99994H52.9517V6.30934H53.7319C53.8512 6.30934 53.9612 6.31879 54.0619 6.33812C54.1892 6.36238 54.3015 6.40227 54.3991 6.45738C54.5738 6.55196 54.7246 6.70781 54.8517 6.92452C54.9828 7.13753 55.1018 7.41552 55.209 7.75847C55.3202 8.10143 55.4453 8.51512 55.5843 8.99994H56.6206C56.3982 8.12487 56.2097 7.49611 56.0548 7.11368C55.9881 6.94755 55.9185 6.7991 55.8459 6.66833C55.7499 6.49562 55.6489 6.35457 55.5426 6.24436C55.3559 6.0515 55.1137 5.91128 54.816 5.82451C55.0661 5.76529 55.2726 5.63165 55.4354 5.42234C55.6022 5.21344 55.7689 4.89227 55.9357 4.45885C55.999 4.29806 56.0609 4.12083 56.1213 3.92714L56.1562 3.81324L56.1956 3.67877C56.2183 3.59981 56.2407 3.51839 56.2629 3.43491C56.2919 3.32553 56.3207 3.21203 56.349 3.09442C56.3723 2.9982 56.3953 2.8991 56.4181 2.79711H55.3758C55.225 3.44355 55.0681 3.96374 54.9053 4.3581C54.8674 4.45104 54.8293 4.53822 54.7911 4.61881L54.7597 4.68296L54.7417 4.71874C54.6363 4.92517 54.5301 5.08308 54.4229 5.19205C54.2601 5.35736 54.0615 5.44043 53.8273 5.44043H52.9517V2.79711H51.9512ZM57.3413 7.25555C57.3413 6.82994 57.4247 6.47711 57.5914 6.19707C57.7621 5.91333 58.0064 5.69045 58.324 5.52884C58.6456 5.36353 59.1102 5.2451 59.7177 5.17437L61.2543 5.03826V4.73642C61.2543 4.25941 61.1193 3.93413 60.8493 3.76101C60.5833 3.58748 60.214 3.50071 59.7415 3.50071C59.5756 3.50071 59.4245 3.51222 59.2883 3.53484C59.0788 3.56938 58.9043 3.63107 58.7647 3.71948C58.5384 3.86546 58.3756 4.02296 58.2763 4.19238L57.4366 3.68411C57.6272 3.34116 57.917 3.0788 58.3061 2.89745C58.6992 2.7124 59.1857 2.61947 59.7653 2.61947C60.6627 2.61947 61.306 2.78108 61.6951 3.1047C62.0842 3.42792 62.2788 3.98759 62.2788 4.78371V8.99994H61.2543V8.22562C60.9366 8.50155 60.6171 8.73018 60.2953 8.91153C59.9737 9.09288 59.6105 9.18335 59.2054 9.18335C58.6098 9.18335 58.1493 9.00406 57.8237 8.64547C57.5021 8.28278 57.3413 7.81933 57.3413 7.25555ZM58.4014 7.23211C58.4014 7.60262 58.4947 7.86868 58.6814 8.03029C58.868 8.1919 59.1479 8.27291 59.5211 8.27291C59.6759 8.27291 59.8289 8.24536 59.9797 8.18984C60.1306 8.13104 60.2795 8.0599 60.4264 7.97724C60.5734 7.89047 60.7143 7.79384 60.8493 7.68733L61.2543 7.36781V5.85412L60.2537 5.9487C59.5748 6.00791 59.0963 6.13991 58.8184 6.34511C58.5404 6.5462 58.4014 6.84187 58.4014 7.23211ZM67.9309 3.45918C67.4703 4.01514 67.24 4.83306 67.24 5.91333C67.24 6.9936 67.4723 7.80946 67.9369 8.36132C68.4014 8.90948 69.0923 9.18335 70.0095 9.18335C70.617 9.18335 71.0934 9.07684 71.4389 8.86424C71.6089 8.75732 71.7607 8.63684 71.8942 8.50237C72.0319 8.36379 72.1501 8.2104 72.2489 8.04221L71.4092 7.53354C71.2226 7.79384 71.024 7.98711 70.8136 8.11294C70.6031 8.23549 70.3311 8.29635 69.9976 8.29635C69.844 8.29635 69.7009 8.28278 69.5682 8.25564C69.489 8.2396 69.4135 8.21863 69.3418 8.19272C69.2295 8.15242 69.1265 8.1002 69.0327 8.03605C68.7826 7.86292 68.5979 7.61455 68.4788 7.29133C68.3598 6.9677 68.3001 6.51659 68.3001 5.93718C68.3001 5.17602 68.4252 4.58098 68.6754 4.15126C68.9295 3.71742 69.3564 3.50071 69.9559 3.50071C70.0396 3.50071 70.1192 3.50482 70.1948 3.51263C70.3169 3.52579 70.4285 3.54923 70.5294 3.58336C70.5741 3.59858 70.6167 3.61585 70.6573 3.63477L70.6867 3.64916C70.7184 3.66561 70.7487 3.68288 70.7778 3.7018C70.9128 3.78774 71.0363 3.89548 71.1484 4.02542C71.2112 4.0978 71.2703 4.17716 71.3258 4.26352L72.1656 3.75484C71.7288 2.9982 70.9962 2.61947 69.9678 2.61947C69.0705 2.61947 68.3914 2.89951 67.9309 3.45918ZM73.3928 6.65805C73.4345 6.48698 73.4959 6.3336 73.5771 6.19707C73.7478 5.91333 73.992 5.69045 74.3097 5.52884C74.6313 5.36353 75.0959 5.2451 75.7034 5.17437L77.24 5.03826V4.73642C77.24 4.25941 77.105 3.93413 76.835 3.76101C76.5689 3.58748 76.1997 3.50071 75.7272 3.50071C75.3063 3.50071 74.9807 3.57349 74.7505 3.71948C74.5241 3.86546 74.3613 4.02296 74.262 4.19238L73.4223 3.68411C73.6128 3.34116 73.9027 3.0788 74.2917 2.89745C74.6849 2.7124 75.1713 2.61947 75.751 2.61947C76.6483 2.61947 77.2916 2.78108 77.6807 3.1047C78.0698 3.42792 78.2644 3.98759 78.2644 4.78371V8.99994H77.24V8.22562C76.9223 8.50155 76.6027 8.73018 76.2811 8.91153C75.9594 9.09288 75.5961 9.18335 75.1911 9.18335C74.5956 9.18335 74.135 9.00406 73.8093 8.64547C73.4877 8.28278 73.3269 7.81933 73.3269 7.25555C73.3269 7.03719 73.3489 6.83816 73.3928 6.65805ZM74.3871 7.23211C74.3871 7.60262 74.4804 7.86868 74.667 8.03029C74.8537 8.1919 75.1336 8.27291 75.5069 8.27291C75.6617 8.27291 75.8145 8.24536 75.9655 8.18984C76.1163 8.13104 76.2652 8.0599 76.4121 7.97724C76.559 7.89047 76.7 7.79384 76.835 7.68733L77.0033 7.5541L77.24 7.36781V5.85412L76.2394 5.9487C75.5604 6.00791 75.0819 6.13991 74.804 6.34511C74.5261 6.5462 74.3871 6.84187 74.3871 7.23211ZM80.2418 2.79711V8.99994H81.3258L84.3395 4.20431V8.99994H85.3043V2.79711H84.2679L81.2066 7.69309V2.79711H80.2418ZM81.8022 0.472902H80.8612C80.8612 0.74883 80.9426 1.00543 81.1053 1.24188C81.1962 1.37388 81.3068 1.48861 81.4372 1.58607C81.5405 1.66338 81.6562 1.73 81.7844 1.78592C82.0781 1.91217 82.4177 1.97509 82.8028 1.97509C83.2039 1.97509 83.5493 1.91381 83.8391 1.79168C84.133 1.66544 84.3592 1.48615 84.5181 1.25381L84.5481 1.20857L84.5767 1.16211L84.6029 1.11523C84.6613 1.00625 84.7036 0.892346 84.7299 0.773915C84.7516 0.676867 84.7623 0.576529 84.7623 0.472902H83.8272C83.8022 0.640268 83.7596 0.783373 83.6994 0.902626L83.6855 0.928944L83.6749 0.948271C83.635 1.01736 83.5885 1.07822 83.5354 1.12962C83.5237 1.14113 83.5113 1.15224 83.4983 1.16293C83.4867 1.17239 83.4744 1.18184 83.4618 1.19089C83.4474 1.20076 83.4324 1.21063 83.4167 1.21968L83.3878 1.2353C83.3353 1.26203 83.2762 1.28424 83.2103 1.30151C83.1545 1.31631 83.0938 1.32783 83.0283 1.33564C82.9552 1.34428 82.8761 1.34839 82.7909 1.34839C82.6202 1.34839 82.468 1.31714 82.3344 1.25545C82.2629 1.22214 82.1966 1.1802 82.1357 1.12962C81.961 0.983636 81.8498 0.764868 81.8022 0.472902ZM86.4121 3.61297V2.79711H91.415V3.61297H89.4139V8.99994H88.4132V3.61297H86.4121ZM92.2041 6.75551C92.1744 6.90931 92.1595 7.07585 92.1595 7.25555C92.1595 7.81933 92.3204 8.28278 92.642 8.64547C92.9676 9.00406 93.4281 9.18335 94.0237 9.18335C94.4288 9.18335 94.792 9.09288 95.1136 8.91153C95.4353 8.73018 95.7549 8.50155 96.0726 8.22562V8.99994H97.097V4.78371C97.097 3.98759 96.9025 3.42792 96.5134 3.1047C96.1242 2.78108 95.4809 2.61947 94.5836 2.61947C94.0039 2.61947 93.5175 2.7124 93.1244 2.89745C92.7353 3.0788 92.4454 3.34116 92.2549 3.68411L93.0946 4.19238C93.1939 4.02296 93.3567 3.86546 93.583 3.71948C93.8133 3.57349 94.1389 3.50071 94.5598 3.50071C95.0322 3.50071 95.4016 3.58748 95.6676 3.76101C95.9375 3.93413 96.0726 4.25941 96.0726 4.73642V5.03826L94.536 5.17437C93.9285 5.2451 93.4639 5.36353 93.1422 5.52884C92.8247 5.69045 92.5804 5.91333 92.4097 6.19707C92.3134 6.35909 92.2448 6.54496 92.2041 6.75551ZM93.4996 8.03029C93.313 7.86868 93.2197 7.60262 93.2197 7.23211C93.2197 6.84187 93.3587 6.5462 93.6366 6.34511C93.9146 6.13991 94.393 6.00791 95.072 5.9487L96.0726 5.85412V7.36781L95.6676 7.68733C95.6058 7.73627 95.5426 7.78315 95.4783 7.82797C95.4022 7.8806 95.3243 7.93036 95.2447 7.97724C95.0978 8.0599 94.9489 8.13104 94.798 8.18984C94.707 8.22315 94.6153 8.24659 94.5229 8.25975C94.462 8.26838 94.4009 8.27291 94.3394 8.27291C94.2558 8.27291 94.1768 8.2688 94.1025 8.26057C94.0336 8.25317 93.9686 8.24207 93.9077 8.22767C93.7417 8.18779 93.6056 8.12199 93.4996 8.03029ZM70.5995 27.7408C69.6111 28.5674 68.473 28.9807 67.1854 28.9807C66.288 28.9807 65.4295 28.8256 64.6102 28.5156C63.7907 28.1928 63.0754 27.7281 62.4641 27.1211C61.8528 26.5142 61.3651 25.7715 61.0009 24.8936C60.6367 24.0156 60.4546 23.0147 60.4546 21.8913C60.4546 20.9228 60.6367 20.0251 61.0009 19.1986C61.3651 18.3593 61.8658 17.6364 62.5031 17.0294C63.1405 16.4093 63.8883 15.9253 64.7468 15.5766C65.6182 15.2151 66.5546 15.0342 67.5561 15.0342C68.1804 15.0342 68.7787 15.1053 69.351 15.2472C69.9233 15.3763 70.45 15.5766 70.9313 15.8476C71.4255 16.1058 71.8678 16.4224 72.2579 16.7967C72.3809 16.911 72.4969 17.0302 72.6057 17.1544C72.842 17.4242 73.0447 17.7182 73.2138 18.0365L70.385 20.1868C70.1118 19.6444 69.7021 19.2118 69.1559 18.8889C68.6096 18.553 68.0308 18.3852 67.4196 18.3852C67.3208 18.3852 67.2239 18.3893 67.1288 18.3979C66.7856 18.4288 66.4663 18.5147 66.1709 18.6562C65.7937 18.8371 65.4686 19.0888 65.1954 19.412C64.9223 19.7348 64.7077 20.1222 64.5517 20.5741C64.3955 21.0129 64.3176 21.4973 64.3176 22.027C64.3176 22.5689 64.3955 23.0599 64.5517 23.4987C64.7077 23.9379 64.9223 24.3191 65.1954 24.6419C65.4816 24.9515 65.8198 25.197 66.21 25.378C66.6001 25.5458 67.0358 25.6296 67.5171 25.6296C68.6227 25.6296 69.5981 25.1777 70.4435 24.2739H68.0438V21.5619H73.7407V28.8836H70.5995V27.7408ZM20.2084 29C19.1549 29 18.1989 28.7997 17.3405 28.3996C16.4821 27.9991 15.7472 27.476 15.1359 26.8304C14.5246 26.172 14.0498 25.4228 13.7118 24.5835C13.3736 23.7442 13.2045 22.879 13.2045 21.9879C13.2045 21.084 13.3801 20.2122 13.7312 19.3729C14.0824 18.5336 14.5701 17.7976 15.1944 17.1647C15.8317 16.5191 16.5796 16.0092 17.438 15.6346C18.3095 15.2472 19.259 15.0535 20.2865 15.0535C21.3399 15.0535 22.296 15.2538 23.1543 15.6539C24.0127 16.0544 24.7476 16.5836 25.3589 17.2424C25.9703 17.9008 26.4385 18.65 26.7636 19.4893C27.1018 20.3286 27.2709 21.1872 27.2709 22.0656C27.2709 22.9695 27.0953 23.8413 26.744 24.6806C26.3929 25.5071 25.9052 26.2432 25.2808 26.8888C24.6566 27.5213 23.9087 28.0316 23.0372 28.4189C22.1788 28.8063 21.2359 29 20.2084 29ZM17.0673 22.027C17.0673 22.4916 17.1324 22.9436 17.2624 23.3827C17.3137 23.5505 17.3751 23.7113 17.4465 23.8651C17.5564 24.102 17.6902 24.322 17.8478 24.5255C18.0027 24.7254 18.1806 24.9022 18.3815 25.0564C18.5181 25.1613 18.6654 25.2554 18.8233 25.3389C19.2265 25.5458 19.7011 25.649 20.2474 25.649C20.4002 25.649 20.5475 25.6408 20.6891 25.6247C21.0538 25.5832 21.3812 25.4878 21.6716 25.3389C22.0748 25.1193 22.4 24.8418 22.6471 24.5062C22.7926 24.3113 22.9157 24.102 23.0164 23.8787C23.0958 23.7027 23.1613 23.518 23.2128 23.3248C23.3429 22.8856 23.4079 22.4398 23.4079 21.9879C23.4079 21.5232 23.3429 21.0775 23.2128 20.6514C23.1861 20.561 23.1563 20.473 23.1235 20.3874C23.0741 20.2591 23.0179 20.1362 22.9548 20.019C22.856 19.8356 22.7405 19.6653 22.608 19.5086C22.3479 19.1731 22.0163 18.9083 21.6131 18.7146C21.4789 18.6434 21.3363 18.5846 21.1852 18.5382C20.897 18.4489 20.5778 18.4045 20.228 18.4045C19.6816 18.4045 19.2069 18.5077 18.8037 18.7146C18.4135 18.921 18.0884 19.1986 17.8282 19.5473C17.5681 19.8833 17.373 20.2706 17.243 20.7094C17.1258 21.1358 17.0673 21.5746 17.0673 22.027ZM0 28.8836V15.1312H5.32615C6.47064 15.1312 7.47865 15.3117 8.35008 15.6732C9.22152 16.0351 9.94986 16.5257 10.5352 17.1454C11.1204 17.7655 11.5627 18.495 11.8618 19.3343C12.161 20.1608 12.3105 21.0454 12.3105 21.9879C12.3105 23.034 12.1415 23.9831 11.8033 24.8356C11.4781 25.6749 11.0098 26.3978 10.3986 27.0048C9.78729 27.599 9.05243 28.0637 8.19404 28.3996C7.33555 28.7224 6.37962 28.8836 5.32615 28.8836H0ZM8.44762 21.9879C8.44762 21.4587 8.37607 20.9742 8.23308 20.5355C8.08998 20.0963 7.88185 19.7217 7.6087 19.412C7.3486 19.102 7.02346 18.863 6.6332 18.6953C6.24304 18.5143 5.80733 18.4239 5.32615 18.4239H3.80435V25.591H5.32615C5.82037 25.591 6.26262 25.5005 6.65277 25.3196C7.04293 25.1391 7.36806 24.887 7.62827 24.5642C7.90132 24.2414 8.10292 23.8606 8.23308 23.4214C8.37607 22.9822 8.44762 22.5044 8.44762 21.9879ZM28.8833 15.1312V28.8836H38.9697V25.591H32.6876V15.1312H28.8833ZM40.2956 28.8836V15.1312H44.1V28.8836H40.2956ZM50.292 28.8836V22.1236L55.7936 28.8836H58.8177V15.1312H55.0133V22.1236L49.453 15.1312H46.4876V28.8836H50.292ZM85.4904 28.8836V25.591H79.4229V23.4214H84.4564V20.3611H79.4229V18.4239H85.3148V15.1312H75.6186V28.8836H85.4904ZM87.2595 28.8836V15.1312H93.6197C94.2959 15.1312 94.9203 15.2731 95.4926 15.5572C96.0648 15.8282 96.5526 16.1901 96.9558 16.642C97.1072 16.8016 97.2466 16.9706 97.3739 17.1491C97.4758 17.2918 97.57 17.441 97.6565 17.5961C97.759 17.7799 97.8505 17.9719 97.9313 18.1722C98.1654 18.7405 98.2824 19.315 98.2824 19.896C98.2824 20.6967 98.1068 21.4455 97.7557 22.1429C97.4045 22.8276 96.9168 23.3893 96.2925 23.8281L99.2189 28.8836H94.9268L92.4881 24.6612H91.0639V28.8836H87.2595ZM91.0639 21.3682H93.4635C93.6977 21.3682 93.9123 21.2391 94.1074 20.9808C94.3155 20.7226 94.4196 20.3611 94.4196 19.896C94.4196 19.4182 94.3025 19.0567 94.0683 18.8112C93.8342 18.553 93.6001 18.4239 93.366 18.4239H91.0639V21.3682ZM113.785 15.2279H112.809L115.248 21.0195L112.38 27.7215L107.054 15.1308H105.981L111.893 28.8836H112.809L115.872 21.8135L118.916 28.8836H119.833L125.764 15.1308H124.671L119.365 27.7215L116.458 21.0195L118.896 15.2279H117.921L115.853 20.225L113.785 15.2279ZM137.079 28.8836V27.9925H128.846V22.2782H135.889V21.4262H128.846V16.0219H136.903V15.1308H127.851V28.8836H137.079ZM150 25.3196C150 25.8229 149.902 26.2946 149.707 26.7334C149.512 27.1598 149.246 27.534 148.907 27.8568C148.569 28.1796 148.173 28.4317 147.717 28.6122C147.678 28.6278 147.638 28.6431 147.597 28.6575C147.549 28.6751 147.499 28.6916 147.45 28.7072C147.075 28.8248 146.683 28.8836 146.274 28.8836H139.796V15.1308H146.254C146.735 15.1308 147.171 15.234 147.561 15.4409C147.951 15.6473 148.283 15.9187 148.556 16.2543C148.829 16.5771 149.038 16.9517 149.181 17.3777C149.252 17.5677 149.308 17.7589 149.346 17.9518C149.376 18.0998 149.396 18.2487 149.407 18.3984C149.412 18.4777 149.415 18.5571 149.415 18.6369C149.415 19.3343 149.239 19.9733 148.888 20.5544C148.537 21.1354 148.049 21.5619 147.425 21.8329C148.218 22.0652 148.842 22.5044 149.298 23.15C149.766 23.7829 150 24.5058 150 25.3196ZM149.005 25.1839C149.005 25.0938 149.001 25.0046 148.993 24.9162C148.986 24.8409 148.976 24.7661 148.963 24.6917C148.931 24.5033 148.88 24.3187 148.81 24.1377C148.738 23.9457 148.651 23.7672 148.547 23.6023C148.514 23.5489 148.479 23.4967 148.442 23.4461C148.386 23.37 148.327 23.2968 148.264 23.2273C148.123 23.0649 147.966 22.923 147.793 22.8021C147.678 22.7215 147.555 22.6504 147.425 22.5883C147.231 22.492 147.028 22.4258 146.814 22.3892C146.683 22.367 146.549 22.3559 146.41 22.3559H140.792V27.9925H146.274C146.345 27.9925 146.415 27.99 146.484 27.9847C146.6 27.9761 146.714 27.96 146.824 27.9366C147.007 27.8979 147.181 27.8391 147.347 27.7602C147.46 27.7084 147.566 27.6512 147.668 27.5879C147.87 27.4616 148.049 27.3124 148.205 27.1401C148.452 26.8691 148.647 26.5656 148.79 26.23C148.933 25.8941 149.005 25.5453 149.005 25.1839ZM140.792 16.0219V21.5228H145.864C146.241 21.5228 146.586 21.4455 146.898 21.2905C147.21 21.1354 147.477 20.9356 147.698 20.6901C147.86 20.5116 147.996 20.3146 148.108 20.0992C148.159 20.0029 148.204 19.903 148.244 19.799C148.374 19.4634 148.439 19.1209 148.439 18.7726C148.439 18.3979 148.374 18.0492 148.244 17.7264C148.127 17.3905 147.958 17.1001 147.737 16.8546C147.529 16.5964 147.275 16.3961 146.976 16.2543C146.677 16.0992 146.345 16.0219 145.981 16.0219H140.792Z" fill="white"/>
</svg>
