<svg width="87" height="62" viewBox="0 0 87 62" fill="none" xmlns="http://www.w3.org/2000/svg">
<path d="M57.4873 1.18494V52.696H28.4367C28.4367 52.427 28.4367 52.158 28.4367 51.889C28.4367 47.0472 24.5364 43.0124 19.5601 43.0124C14.7183 43.0124 10.6835 46.9127 10.6835 51.889C10.6835 52.158 10.6835 52.427 10.6835 52.696H1V1.18494H57.4873Z" stroke="#2F2483" stroke-width="2" stroke-miterlimit="10"/>
<path d="M85.9999 24.3179V52.696H76.3164C76.3164 52.427 76.3164 52.158 76.3164 51.8891C76.3164 47.0473 72.2816 43.0125 67.4398 43.0125C62.5981 43.0125 58.5633 46.9128 58.5633 51.8891C58.5633 52.158 58.5633 52.427 58.5633 52.696H57.4873V14.6343H76.3164L85.9999 24.3179Z" stroke="#2F2483" stroke-width="2" stroke-miterlimit="10"/>
<path d="M28.4367 52.0235C28.4367 52.2925 28.4367 52.5615 28.4367 52.8305C28.0333 57.4032 24.2674 60.9001 19.5602 60.9001C14.8529 60.9001 11.0871 57.2687 10.6836 52.8305C10.6836 52.5615 10.6836 52.2925 10.6836 52.0235C10.6836 47.1817 14.7184 43.1469 19.5602 43.1469C24.5364 43.1469 28.4367 47.0472 28.4367 52.0235Z" stroke="#2F2483" stroke-width="2" stroke-miterlimit="10"/>
<path d="M76.3166 52.0235C76.3166 52.2925 76.3166 52.5615 76.3166 52.8305C75.9131 57.4032 72.1473 60.9001 67.4401 60.9001C62.7328 60.9001 58.967 57.2687 58.5635 52.8305C58.5635 52.5615 58.5635 52.2925 58.5635 52.0235C58.5635 47.1817 62.4638 43.1469 67.4401 43.1469C72.2818 43.1469 76.3166 47.0472 76.3166 52.0235Z" stroke="#2F2483" stroke-width="2" stroke-miterlimit="10"/>
<path d="M67.4398 14.6342C67.4398 14.6342 67.0363 5.08514 57.4873 5.08514" stroke="#2F2483" stroke-width="2" stroke-miterlimit="10"/>
<path d="M1 46.9127H12.2975" stroke="#2F2483" stroke-width="2" stroke-miterlimit="10"/>
<path d="M26.8223 46.9127H57.4868" stroke="#2F2483" stroke-width="2" stroke-miterlimit="10"/>
<path d="M74.7021 46.9127H85.9996" stroke="#2F2483" stroke-width="2" stroke-miterlimit="10"/>
<path d="M64.2119 31.0424H79.2752" stroke="#2F2483" stroke-width="2" stroke-miterlimit="10"/>
<path d="M1 60.9H85.9999" stroke="#2F2483" stroke-width="2" stroke-miterlimit="10"/>
</svg>
