<svg width="51" height="74" viewBox="0 0 51 74" fill="none" xmlns="http://www.w3.org/2000/svg">
<path d="M13.0811 10.7878C13.0811 16.193 23.0811 29 23.0811 29C23.0811 29 33.0811 16.193 33.0811 10.7878C33.0811 5.38261 28.6034 1 23.0811 1C17.5587 1 13.0811 5.38261 13.0811 10.7878Z" stroke="#2F2483" stroke-width="2" stroke-miterlimit="10"/>
<path d="M23.0811 24C23.0811 24 16.0811 14.8755 16.0811 11" stroke="#2F2483" stroke-width="2" stroke-miterlimit="10"/>
<path d="M30.0811 11C30.0811 7.13287 26.9482 4 23.0811 4" stroke="#2F2483" stroke-width="2" stroke-miterlimit="10"/>
<path d="M32.6347 25.0506C30.6195 28.541 32.1987 40.4797 32.1987 40.4797C32.1987 40.4797 43.3275 35.878 45.3427 32.3876C47.358 28.8971 46.1468 24.4244 42.6379 22.3985C39.1289 20.3726 34.6499 21.5601 32.6347 25.0506Z" stroke="#2F2483" stroke-width="2" stroke-miterlimit="10"/>
<path d="M2.65408 30.2832C4.11994 32.8222 12.215 36.1694 12.215 36.1694C12.215 36.1694 13.3637 27.4853 11.8979 24.9463C10.432 22.4074 7.17398 21.5436 4.62159 23.0172C2.06919 24.4909 1.18822 27.7443 2.65408 30.2832Z" stroke="#2F2483" stroke-width="2" stroke-miterlimit="10"/>
<path d="M38.259 47.3169C38.9576 47.7056 39.0626 47.9592 39.0783 48C39.0626 48.0408 38.9576 48.2944 38.259 48.6831C37.5147 49.0971 36.3715 49.5024 34.8728 49.855C31.8914 50.5565 27.7219 51 23.0811 51C18.4403 51 14.2707 50.5565 11.2893 49.855C9.7906 49.5024 8.64738 49.0971 7.90314 48.6831C7.20448 48.2944 7.09954 48.0408 7.08381 48C7.09954 47.9592 7.20448 47.7056 7.90314 47.3169C8.64738 46.9029 9.7906 46.4976 11.2893 46.145C14.2707 45.4435 18.4403 45 23.0811 45C27.7219 45 31.8914 45.4435 34.8728 46.145C36.3715 46.4976 37.5147 46.9029 38.259 47.3169Z" stroke="#2F2483" stroke-width="2"/>
<path d="M7.08105 48V69C7.08105 71.2091 14.2445 73 23.0811 73C31.9176 73 39.0811 71.2091 39.0811 69V48" stroke="#2F2483" stroke-width="2"/>
</svg>
