<svg width="12" height="15" viewBox="0 0 12 15" fill="none" xmlns="http://www.w3.org/2000/svg">
<path d="M11 5.76923C11 6.30068 10.7321 7.08924 10.1879 8.07092C9.66144 9.02062 8.94701 10.0282 8.21363 10.9617C7.48325 11.8914 6.75038 12.7272 6.1988 13.3317C6.12947 13.4077 6.06308 13.4799 6 13.5482C5.93692 13.4799 5.87053 13.4077 5.8012 13.3317C5.24962 12.7272 4.51675 11.8914 3.78637 10.9617C3.05299 10.0282 2.33856 9.02062 1.81211 8.07092C1.26794 7.08924 1 6.30068 1 5.76923C1 3.17186 3.20125 1 6 1C8.79875 1 11 3.17186 11 5.76923Z" stroke="#2F2483" stroke-width="2"/>
</svg>
