<svg width="23" height="22" viewBox="0 0 23 22" fill="none" xmlns="http://www.w3.org/2000/svg">
<path d="M3 21.5H17.5C19.1569 21.5 20.5 20.1569 20.5 18.5V14H15C12.7909 14 11 12.2091 11 10C11 7.79086 12.7909 6 15 6H20.5V3C20.5 1.34315 19.1569 0 17.5 0H3C1.34315 0 0 1.34315 0 3V18.5C0 20.1569 1.34315 21.5 3 21.5Z" fill="#2F2483"/>
<path d="M20 12.5H15C13.6193 12.5 12.5 11.3807 12.5 10C12.5 8.61929 13.6193 7.5 15 7.5H20C21.3807 7.5 22.5 8.61929 22.5 10C22.5 11.3807 21.3807 12.5 20 12.5Z" fill="#2F2483"/>
</svg>
