<svg width="330" height="48" viewBox="0 0 330 48" fill="none" xmlns="http://www.w3.org/2000/svg">
<path fill-rule="evenodd" clip-rule="evenodd" d="M35.1249 47.6624C25.4105 41.7285 19.8116 36.1775 22.3479 19.4286C17.6582 19.6679 11.8679 26.3675 11.8201 33.4498C11.6286 50.6293 27.7075 47.2317 35.1249 47.6624Z" fill="#009EE3"/>
<path fill-rule="evenodd" clip-rule="evenodd" d="M50.9165 21.9649C50.9165 20.4336 34.8854 6.84312 32.6842 5.02465C28.1046 9.05245 19.9466 16.277 13.8214 21.7013C9.32183 25.6861 5.91924 28.6993 5.83817 28.7601L0 28.6645L0.478538 28.2816H0.430682L27.8988 4.21116V4.259L32.7799 0L65.0812 28.808H59.7695L57.9989 27.7552C57.5203 34.5504 48.1888 46.2268 41.9678 47.7102C37.9481 46.5139 33.5455 44.7433 30.9136 40.6279C32.4928 40.6279 34.2155 40.3408 36.9432 39.623C43.1163 38.5223 50.9165 28.808 50.9165 21.9649ZM24.8361 25.2189C22.7784 38.5223 27.2767 42.9249 35.1247 47.6624C34.2338 47.6196 33.1889 47.6427 32.0561 47.6677C25.5839 47.8105 16.2438 48.0166 16.366 36.3689C16.4139 30.7221 21.0557 25.4104 24.8361 25.2189Z" fill="#2F2483"/>
<path fill-rule="evenodd" clip-rule="evenodd" d="M35.1249 47.6624C29.2389 44.2648 25.8891 41.1064 27.4204 31.5835C24.5971 31.7271 21.1037 35.5554 21.0559 39.5751C20.9602 49.3852 30.6266 47.4231 35.1249 47.6624Z" fill="#575656"/>
<path fill-rule="evenodd" clip-rule="evenodd" d="M35.1249 47.6624C29.2389 44.2648 25.8891 41.1064 27.4204 31.5835C24.5971 31.7271 21.1037 35.5554 21.0559 39.5751C20.9602 49.3852 30.6266 47.4231 35.1249 47.6624Z" fill="#575656"/>
<path fill-rule="evenodd" clip-rule="evenodd" d="M149.878 35.5554C155.429 35.5554 159.975 31.5835 159.975 24.1184C159.975 17.6581 156.147 13.1598 150.213 13.1598C144.423 13.1598 140.116 17.6581 140.116 24.5491C140.116 31.105 144.136 35.5554 149.878 35.5554ZM150.07 33.2584C145.667 33.2584 143.131 29.0952 143.131 24.4533C143.131 19.7158 145.38 15.4568 150.07 15.4568C154.759 15.4568 157.009 19.955 157.009 24.2619C157.009 29.1909 154.472 33.2584 150.07 33.2584ZM124.324 13.7341C126.095 13.447 127.913 13.3034 129.684 13.3034C132.46 13.3034 134.469 13.9734 135.761 15.1219C137.054 16.2703 137.723 17.9452 137.676 19.668C137.676 21.63 137.101 23.1613 136.001 24.3098C134.517 25.889 132.125 26.7025 129.349 26.7025C128.583 26.7025 127.818 26.6546 127.1 26.5111V35.2205H124.277L124.324 13.7341ZM127.1 24.2141C127.866 24.4055 128.631 24.4534 129.445 24.4534C132.842 24.4534 134.9 22.8263 134.9 19.8115C134.9 16.9403 132.89 15.5525 129.78 15.5525C128.871 15.5047 128.009 15.6004 127.148 15.7918V24.2141H127.1ZM80.4424 13.4948V15.8396H71.7331V35.2204H68.9097V13.4948H80.4424ZM85.4671 13.4948V22.6348C85.4671 26.0804 85.4192 28.9037 85.2278 31.8228L85.2757 31.8707C86.3763 29.6215 87.7162 27.2767 89.2954 24.6926L96.3299 13.4948H99.1533V35.2204H96.5213V25.9368C96.5213 22.4434 96.5692 19.8594 96.7606 17.1317L96.6649 17.0838C95.4685 19.6201 94.1286 22.0606 92.6452 24.4055L85.8499 35.2204H82.8351V13.4948H85.4671ZM118.869 32.9234V13.4948H106.666V18.998C106.666 22.7306 106.379 25.6497 105.661 28.138C105.135 29.8129 104.417 31.3921 103.556 32.9234L101.929 32.9713L102.12 40.3886H104.321L104.513 35.2204H118.199L118.391 40.3886H120.592L120.783 32.9713L118.869 32.9234ZM108.246 28.7602C109.011 26.3196 109.346 23.4005 109.346 19.9072V15.7918H116.046V32.8756H106.475C107.193 31.5835 107.815 30.1958 108.246 28.7602Z" fill="#009EE3"/>
<path fill-rule="evenodd" clip-rule="evenodd" d="M316.362 22.6348V13.4948H313.682V35.2204H316.697L323.492 24.4055C324.975 22.0606 326.363 19.6201 327.512 17.0838L327.607 17.1316C327.416 19.8593 327.368 22.4434 327.368 25.9368V35.2204H330V13.4948H327.225L320.19 24.6926C318.611 27.2767 317.271 29.6215 316.17 31.8706L316.123 31.8228C316.314 28.9037 316.362 26.0803 316.362 22.6348ZM321.865 10.9585C320.334 10.9585 320.047 9.95356 319.903 8.94864H317.702C317.893 11.0542 319.137 12.3941 321.769 12.3941C324.545 12.3941 325.837 11.0542 325.98 8.94864H323.827C323.683 10.0014 323.396 10.9585 321.865 10.9585ZM178.782 34.5026C177.777 35.029 175.672 35.5554 173.04 35.5554C166.914 35.5554 162.32 31.6792 162.32 24.549C162.32 17.7538 166.914 13.1598 173.662 13.1598C176.341 13.1598 178.064 13.734 178.83 14.1169L178.16 16.4139C176.772 15.7918 175.289 15.5046 173.805 15.5046C168.733 15.5046 165.335 18.7587 165.335 24.4533C165.335 29.7651 168.398 33.1627 173.662 33.1627C175.241 33.1627 176.772 32.8756 178.256 32.2535L178.782 34.5026ZM197.971 13.4948V35.2204H195.148V15.8396H185.051V35.2204H182.323V13.4948H197.971ZM205.676 25.0275H214.098V22.6827H205.676V15.8396H214.625V13.4948H202.9V35.1726H215.055V32.8277H205.676V25.0275ZM221.515 13.4948V32.8277H231.469V13.4948H234.292V32.9234L236.207 32.9712L236.015 40.4365H233.814L233.622 35.2204H218.74V13.4948H221.515ZM249.127 35.5554C251.759 35.5554 253.817 35.029 254.87 34.5026L254.248 32.2535C252.812 32.8756 251.281 33.1627 249.701 33.1627C244.437 33.1627 241.375 29.7651 241.375 24.4533C241.375 18.7587 244.772 15.5046 249.845 15.5046C251.376 15.5046 252.86 15.7918 254.248 16.4139L254.917 14.1169C254.152 13.734 252.477 13.1598 249.749 13.1598C243.002 13.1598 238.408 17.7538 238.408 24.549C238.408 31.6792 243.002 35.5554 249.127 35.5554ZM262.526 15.8874H255.922V13.4948H272.001V15.8874H265.35V35.2204H262.526V15.8874ZM279.754 13.3034C277.983 13.3034 276.165 13.447 274.394 13.7341L274.346 35.2205H277.17V26.511C277.887 26.6546 278.653 26.7025 279.419 26.7025C282.194 26.7025 284.587 25.889 286.07 24.3098C287.171 23.1613 287.745 21.63 287.745 19.668C287.793 17.9452 287.123 16.2703 285.831 15.1219C284.539 13.9734 282.529 13.3034 279.754 13.3034ZM279.514 24.4534C278.749 24.4534 277.983 24.4055 277.217 24.2141V15.7918C278.079 15.6004 278.988 15.5046 279.849 15.5525C282.96 15.5525 284.97 16.9403 284.97 19.8115C284.97 22.8263 282.912 24.4534 279.514 24.4534ZM310.093 24.1183C310.093 31.5835 305.547 35.5554 299.996 35.5554C294.253 35.5554 290.234 31.105 290.234 24.549C290.234 17.6581 294.54 13.1598 300.331 13.1598C306.265 13.1598 310.093 17.6581 310.093 24.1183ZM293.248 24.4533C293.248 29.0951 295.737 33.2584 300.187 33.2584C304.638 33.2584 307.126 29.1908 307.126 24.2619C307.126 19.955 304.877 15.4568 300.187 15.4568C295.498 15.4568 293.248 19.7158 293.248 24.4533Z" fill="#575656"/>
</svg>
