<svg width="55" height="63" viewBox="0 0 55 63" fill="none" xmlns="http://www.w3.org/2000/svg">
<path d="M24.3 6.2C24.3 6.9 24 7.6 23.4 8.2C22.7 9 21.5 9.7 20.1 10.2C18.1 11 15.4 11.4 12.6 11.4C9.7 11.4 7.1 10.9 5.1 10.2C3.7 9.7 2.6 9 1.9 8.2C1.3 7.6 1 7 1 6.2C1 3.4 6.2 1 12.7 1C19.1 1 24.3 3.4 24.3 6.2Z" stroke="#009EE3" stroke-width="2" stroke-miterlimit="10" stroke-linecap="round" stroke-linejoin="round"/>
<path d="M24.3 10.2C24.3 10.9 24 11.6 23.4 12.2C22.7 13 21.6 13.7 20.1 14.2C18.1 15 15.4 15.4 12.6 15.4C9.7 15.4 7.1 14.9 5.1 14.2C3.7 13.7 2.6 13 1.9 12.2C1.3 11.6 1 11 1 10.2C1 9.49995 1.3 8.79995 1.9 8.19995C2.6 8.99995 3.7 9.69995 5.2 10.2C7.2 11 9.8 11.4 12.7 11.4C15.6 11.4 18.2 10.9 20.2 10.2C21.6 9.69995 22.7 8.99995 23.5 8.19995C24 8.89995 24.3 9.49995 24.3 10.2Z" stroke="#009EE3" stroke-width="2" stroke-miterlimit="10" stroke-linecap="round" stroke-linejoin="round"/>
<path d="M24.3 14.2C24.3 14.9 24 15.6 23.4 16.2C22.7 17 21.6 17.7 20.1 18.2C18.1 19 15.4 19.4 12.6 19.4C9.7 19.4 7.1 18.9 5.1 18.2C3.7 17.7 2.6 17 1.9 16.2C1.3 15.6 1 15 1 14.2C1 13.5 1.3 12.8 1.9 12.2C2.6 13 3.7 13.7 5.1 14.2C7.1 15 9.7 15.4 12.6 15.4C15.5 15.4 18.1 14.9 20.1 14.2C21.5 13.7 22.6 13 23.4 12.2C24 12.9 24.3 13.5 24.3 14.2Z" stroke="#009EE3" stroke-width="2" stroke-miterlimit="10" stroke-linecap="round" stroke-linejoin="round"/>
<path d="M24.3 18.2C24.3 18.9 24 19.6 23.4 20.2C22.7 21 21.6 21.7 20.1 22.2C18.1 23 15.4 23.4 12.6 23.4C9.7 23.4 7.1 22.9 5.1 22.2C3.7 21.7 2.6 21 1.9 20.2C1.3 19.6 1 19 1 18.2C1 17.5 1.3 16.8 1.9 16.2C2.6 17 3.7 17.7 5.1 18.2C7.1 19 9.7 19.4 12.6 19.4C15.5 19.4 18.1 18.9 20.1 18.2C21.5 17.7 22.6 17 23.4 16.2C24 16.9 24.3 17.5 24.3 18.2Z" stroke="#009EE3" stroke-width="2" stroke-miterlimit="10" stroke-linecap="round" stroke-linejoin="round"/>
<path d="M24.3 22.2C24.3 22.9 24 23.6 23.4 24.2C22.7 25 21.6 25.7 20.1 26.2C18.1 27 15.4 27.4 12.6 27.4C9.7 27.4 7.1 26.9 5.1 26.2C3.7 25.7 2.6 25 1.9 24.2C1.3 23.6 1 23 1 22.2C1 21.5 1.3 20.8 1.9 20.2C2.6 21 3.7 21.7 5.1 22.2C7.1 23 9.7 23.4 12.6 23.4C15.5 23.4 18.1 22.9 20.1 22.2C21.5 21.7 22.6 21 23.4 20.2C24 20.9 24.3 21.5 24.3 22.2Z" stroke="#009EE3" stroke-width="2" stroke-miterlimit="10" stroke-linecap="round" stroke-linejoin="round"/>
<path d="M24.3 26.2C24.3 26.9 24 27.6 23.4 28.2C22.7 29 21.6 29.7 20.1 30.2C18.1 31 15.4 31.4 12.6 31.4C9.7 31.4 7.1 30.9 5.1 30.2C3.7 29.7 2.6 29 1.9 28.2C1.3 27.6 1 27 1 26.2C1 25.5 1.3 24.8 1.9 24.2C2.6 25 3.7 25.7 5.1 26.2C7.1 27 9.7 27.4 12.6 27.4C15.5 27.4 18.1 26.9 20.1 26.2C21.5 25.7 22.6 25 23.4 24.2C24 24.9 24.3 25.5 24.3 26.2Z" stroke="#009EE3" stroke-width="2" stroke-miterlimit="10" stroke-linecap="round" stroke-linejoin="round"/>
<path d="M24.3 30.2C24.3 30.8 24 31.5 23.6 32C21.8 32.6 20.4 33.4 19.6 34.4C17.7 35.1 15.2 35.4 12.6 35.4C9.7 35.4 7.1 34.9 5.1 34.2C3.7 33.7 2.6 33 1.9 32.2C1.3 31.6 1 31 1 30.2C1 29.5 1.3 28.8 1.9 28.2C2.6 29 3.7 29.7 5.1 30.2C7.1 31 9.7 31.4 12.6 31.4C15.5 31.4 18.1 30.9 20.1 30.2C21.5 29.7 22.6 29 23.4 28.2C24 28.9 24.3 29.5 24.3 30.2Z" stroke="#009EE3" stroke-width="2" stroke-miterlimit="10" stroke-linecap="round" stroke-linejoin="round"/>
<path d="M19.8 38.2C19.7 38.3 19.7 38.3 19.6 38.4C17.7 39.1 15.2 39.5 12.6 39.5C9.7 39.5 7.1 38.9999 5.1 38.2999C3.7 37.7999 2.6 37.0999 1.9 36.2999C1.3 35.5999 1 35 1 34.2C1 33.5 1.3 32.8 1.9 32.2C2.6 33 3.7 33.7 5.1 34.2C7.1 35 9.7 35.4 12.6 35.4C15.2 35.4 17.6 35 19.6 34.4C19.1 35 18.9 35.6 18.9 36.2C18.9 37 19.3 37.6 19.8 38.2Z" stroke="#009EE3" stroke-width="2" stroke-miterlimit="10" stroke-linecap="round" stroke-linejoin="round"/>
<path d="M19.8 42.2C19.7 42.3 19.7 42.3 19.6 42.4C17.7 43.1 15.2 43.5 12.6 43.5C9.7 43.5 7.1 42.9999 5.1 42.2999C3.7 41.7999 2.6 41.0999 1.9 40.2999C1.3 39.5999 1 39 1 38.2C1 37.5 1.3 36.8 1.9 36.2C2.6 37 3.7 37.7 5.1 38.2C7.1 39 9.7 39.4 12.6 39.4C15.2 39.4 17.6 38.9999 19.6 38.2999C19.1 38.8999 18.9 39.4999 18.9 40.0999C18.9 40.9999 19.3 41.6 19.8 42.2Z" stroke="#009EE3" stroke-width="2" stroke-miterlimit="10" stroke-linecap="round" stroke-linejoin="round"/>
<path d="M19.8 46.2C19.7 46.3 19.7 46.3 19.6 46.4C19.4 46.5 19.1 46.5999 18.9 46.5999H18.8C18.6 46.6999 18.3 46.6999 18.1 46.7999H18C17.8 46.7999 17.6 46.9 17.4 46.9C17.3 46.9 17.2 46.9 17.2 46.9C17 46.9 16.8 47 16.6 47C16 47.1 15.5 47.2 14.9 47.2C14.7 47.2 14.4 47.2 14.2 47.2C13.7 47.2 13.3 47.2 12.8 47.2C9.9 47.2 7.3 46.7 5.3 46C3.9 45.5 2.8 44.8 2.1 44C1.3 43.6 1 43 1 42.2C1 41.5 1.3 40.8 1.9 40.2C2.6 41 3.7 41.7 5.1 42.2C7.1 43 9.7 43.4 12.6 43.4C15.2 43.4 17.6 42.9999 19.6 42.2999C19.1 42.8999 18.9 43.4999 18.9 44.0999C18.9 44.9999 19.3 45.6 19.8 46.2Z" stroke="#009EE3" stroke-width="2" stroke-miterlimit="10" stroke-linecap="round" stroke-linejoin="round"/>
<path d="M19.8 50.2C19.7 50.3 19.7 50.3 19.6 50.4C19.4 50.5 19.1 50.5999 18.9 50.5999C18.7 50.6999 18.5 50.7 18.4 50.7C18.2 50.7 18 50.7999 17.8 50.7999C17.4 50.8999 16.9 50.9999 16.5 51.0999C16.3 51.0999 16.1 51.2 15.9 51.2C15.7 51.2 15.6 51.1999 15.4 51.2999C15.2 51.2999 14.9 51.3 14.7 51.4C14.5 51.4 14.3 51.4 14 51.4C13.6 51.4 13.1 51.4 12.7 51.4C7.8 51.4 3.7 50.0999 1.9 48.0999C1.3 47.5999 1 47 1 46.2C1 45.5 1.3 44.8 1.9 44.2C2.6 45 3.7 45.7 5.1 46.2C7.1 47 9.7 47.4 12.6 47.4C13.1 47.4 13.5 47.4 14 47.4C14.2 47.4 14.5 47.4 14.7 47.4C15.3 47.4 15.9 47.3 16.4 47.2C16.6 47.2 16.8 47.0999 17 47.0999C17.1 47.0999 17.2 47.0999 17.2 47.0999C17.4 47.0999 17.6 47 17.8 47C17.9 47 17.9 47 17.9 47C18.1 46.9 18.4 46.8999 18.6 46.7999C18.6 46.7999 18.6 46.7999 18.7 46.7999C18.9 46.6999 19.2 46.6999 19.4 46.5999C18.9 47.1999 18.7 47.8 18.7 48.4C18.9 49 19.3 49.6 19.8 50.2Z" stroke="#009EE3" stroke-width="2" stroke-miterlimit="10" stroke-linecap="round" stroke-linejoin="round"/>
<path d="M19.8 54.2C19.7 54.3 19.7 54.3 19.6 54.4C17.7 55.1 15.2 55.5 12.6 55.5C6.2 55.5 1 53.1 1 50.2C1 49.5 1.3 48.8 1.9 48.2C3.6 50.1 7.8 51.5 12.7 51.5C13.1 51.5 13.6 51.5 14 51.5C14.2 51.5 14.5 51.5 14.7 51.5C15 51.5 15.2 51.5 15.4 51.4C15.6 51.4 15.7 51.3999 15.9 51.2999C16.1 51.2999 16.3 51.3 16.5 51.2C17 51.1 17.4 51 17.8 50.9C18 50.9 18.2 50.7999 18.4 50.7999C18.6 50.7999 18.8 50.7 18.9 50.7C19.2 50.6 19.4 50.6 19.6 50.5C19.1 51.1 18.9 51.6999 18.9 52.2999C18.9 52.9999 19.3 53.6 19.8 54.2Z" stroke="#009EE3" stroke-width="2" stroke-miterlimit="10" stroke-linecap="round" stroke-linejoin="round"/>
<path d="M53.9 12.2C53.9 12.9 53.6 13.6 53 14.2C52.3 15 51.1 15.7 49.7 16.2C47.7 17 45 17.4 42.2 17.4C39.3 17.4 36.7 16.9 34.7 16.2C33.3 15.7 32.2 15 31.4 14.2C30.8 13.6 30.5 12.9 30.5 12.2C30.5 9.3 35.7 7 42.2 7C48.7 7 53.9 9.3 53.9 12.2Z" stroke="#009EE3" stroke-width="2" stroke-miterlimit="10" stroke-linecap="round" stroke-linejoin="round"/>
<path d="M53.8996 16.2C53.8996 16.9 53.5996 17.6 52.9996 18.2C52.2996 19 51.1996 19.7 49.6996 20.2C47.6996 21 44.9996 21.4 42.1996 21.4C39.2996 21.4 36.6996 20.9 34.6996 20.2C33.2996 19.7 32.1996 19 31.4996 18.2C30.8996 17.6 30.5996 16.9 30.5996 16.2C30.5996 15.5 30.8996 14.8 31.4996 14.2C32.1996 15 33.2996 15.7 34.7996 16.2C36.7996 17 39.3996 17.4 42.2996 17.4C45.1996 17.4 47.7996 16.9 49.7996 16.2C51.1996 15.7 52.2996 15 53.0996 14.2C53.5996 14.9 53.8996 15.5 53.8996 16.2Z" stroke="#009EE3" stroke-width="2" stroke-miterlimit="10" stroke-linecap="round" stroke-linejoin="round"/>
<path d="M53.8996 20.2C53.8996 20.9 53.5996 21.6 52.9996 22.2C52.2996 23 51.1996 23.7 49.6996 24.2C47.6996 25 44.9996 25.4 42.1996 25.4C39.2996 25.4 36.6996 24.9 34.6996 24.2C33.2996 23.7 32.1996 23 31.4996 22.2C30.8996 21.6 30.5996 20.9 30.5996 20.2C30.5996 19.5 30.8996 18.8 31.4996 18.2C32.1996 19 33.2996 19.7 34.6996 20.2C36.6996 21 39.2996 21.4 42.1996 21.4C45.0996 21.4 47.6996 20.9 49.6996 20.2C51.0996 19.7 52.1996 19 52.9996 18.2C53.5996 18.9 53.8996 19.5 53.8996 20.2Z" stroke="#009EE3" stroke-width="2" stroke-miterlimit="10" stroke-linecap="round" stroke-linejoin="round"/>
<path d="M53.8996 24.2C53.8996 24.9 53.5996 25.6 52.9996 26.2C52.2996 27 51.1996 27.7 49.6996 28.2C47.6996 29 44.9996 29.4 42.1996 29.4C39.2996 29.4 36.6996 28.9 34.6996 28.2C33.2996 27.7 32.1996 27 31.4996 26.2C30.8996 25.6 30.5996 24.9 30.5996 24.2C30.5996 23.5 30.8996 22.8 31.4996 22.2C32.1996 23 33.2996 23.7 34.6996 24.2C36.6996 25 39.2996 25.4 42.1996 25.4C45.0996 25.4 47.6996 24.9 49.6996 24.2C51.0996 23.7 52.1996 23 52.9996 22.2C53.5996 22.9 53.8996 23.5 53.8996 24.2Z" stroke="#009EE3" stroke-width="2" stroke-miterlimit="10" stroke-linecap="round" stroke-linejoin="round"/>
<path d="M54 28.2C54 28.9 53.7 29.6 53.1 30.2C52.4 31 51.3 31.7 49.8 32.2C47.8 33 45.1 33.4 42.3 33.4C41.7 33.4 41 33.3999 40.4 33.2999C38.6 32.0999 35.8 31.2 32.4 31C32 30.7 31.7 30.5 31.4 30.2C30.8 29.6 30.5 28.9 30.5 28.2C30.5 27.5 30.8 26.8 31.4 26.2C32.1 27 33.2 27.7 34.6 28.2C36.6 29 39.2 29.4 42.1 29.4C45 29.4 47.6 28.9 49.6 28.2C51 27.7 52.1 27 52.9 26.2C53.6 26.9 54 27.5 54 28.2Z" stroke="#009EE3" stroke-width="2" stroke-miterlimit="10" stroke-linecap="round" stroke-linejoin="round"/>
<path d="M31.5 30.2C31.8 30.5 32.1 30.8 32.5 31C32 31 31.5 30.9 31 30.9C31.1 30.7 31.3 30.5 31.5 30.2Z" stroke="#009EE3" stroke-width="2" stroke-miterlimit="10" stroke-linecap="round" stroke-linejoin="round"/>
<path d="M54.0004 32.2001C54.0004 32.9001 53.7004 33.6001 53.1004 34.2001C52.4004 35.0001 51.3004 35.7001 49.8004 36.2001C47.8004 37.0001 45.1004 37.4001 42.3004 37.4001C42.2004 37.4001 42.1004 37.4001 42.0004 37.4001C42.2004 37.0001 42.3004 36.6001 42.3004 36.2001C42.3004 35.2001 41.6004 34.2001 40.4004 33.4001C41.0004 33.4001 41.6004 33.5 42.3004 33.5C45.2004 33.5 47.8004 33 49.8004 32.3C51.2004 31.8 52.3004 31.1 53.1004 30.3C53.6004 30.9 54.0004 31.5001 54.0004 32.2001Z" stroke="#009EE3" stroke-width="2" stroke-miterlimit="10" stroke-linecap="round" stroke-linejoin="round"/>
<path d="M54.0004 36.2C54.0004 36.9 53.7004 37.6 53.1004 38.2C52.4004 39 51.3004 39.7 49.8004 40.2C47.8004 41 45.1004 41.4 42.3004 41.4C42.2004 41.4 42.1004 41.4 42.0004 41.4C42.2004 41 42.3004 40.6 42.3004 40.2C42.3004 39.5 42.0004 38.8 41.4004 38.2C41.6004 37.9 41.8004 37.7 42.0004 37.4C42.1004 37.4 42.2004 37.4 42.3004 37.4C45.2004 37.4 47.8004 36.9 49.8004 36.2C51.2004 35.7 52.3004 35 53.1004 34.2C53.6004 34.9 54.0004 35.5 54.0004 36.2Z" stroke="#009EE3" stroke-width="2" stroke-miterlimit="10" stroke-linecap="round" stroke-linejoin="round"/>
<path d="M54.0004 40.2C54.0004 40.9 53.7004 41.6 53.1004 42.2C52.4004 43 51.3004 43.7 49.8004 44.2C47.8004 45 45.1004 45.4 42.3004 45.4C42.2004 45.4 42.1004 45.4 42.0004 45.4C42.2004 45 42.3004 44.6 42.3004 44.2C42.3004 43.5 42.0004 42.8 41.4004 42.2C41.6004 41.9 41.8004 41.7 42.0004 41.4C42.1004 41.4 42.2004 41.4 42.3004 41.4C45.2004 41.4 47.8004 40.9 49.8004 40.2C51.2004 39.7 52.3004 39 53.1004 38.2C53.6004 38.9 54.0004 39.5 54.0004 40.2Z" stroke="#009EE3" stroke-width="2" stroke-miterlimit="10" stroke-linecap="round" stroke-linejoin="round"/>
<path d="M42.2998 36.2C42.2998 36.6 42.1998 37 41.9998 37.4C41.8998 37.7 41.6998 37.9 41.3998 38.2C40.6998 39 39.5998 39.7 38.0998 40.2C37.5998 40.4 36.9998 40.6 36.3998 40.7C34.7998 41.1 32.8998 41.4 30.8998 41.4C30.7998 41.4 30.6998 41.4 30.5998 41.4C27.9998 41.4 25.5998 41 23.5998 40.4C23.4998 40.4 23.3998 40.3 23.2998 40.3C23.1998 40.3 23.0998 40.2 22.9998 40.2C21.5998 39.7 20.5998 39 19.7998 38.3L19.6998 38.2C19.0998 37.6 18.7998 36.9 18.7998 36.2C18.7998 35.6 19.0998 35 19.4998 34.4C20.2998 33.4 21.6998 32.6 23.4998 32C25.4998 31.3 27.8998 31 30.4998 31C30.5998 31 30.6998 31 30.7998 31C31.2998 31 31.7998 31 32.2998 31.1C35.5998 31.3 38.4998 32.2 40.2998 33.4C41.5998 34.2 42.2998 35.2 42.2998 36.2Z" stroke="#009EE3" stroke-width="2" stroke-miterlimit="10" stroke-linecap="round" stroke-linejoin="round"/>
<path d="M42.3 40.2C42.3 40.6 42.2 41 42 41.4C41.9 41.7 41.7 41.9 41.4 42.2C40.7 43 39.6 43.7 38.1 44.2C37.6 44.4 37 44.6 36.4 44.7C34.7 45.2 32.7 45.4 30.5 45.4C30 45.4 29.6 45.4 29.1 45.4C28.9 45.4 28.6 45.4 28.4 45.4C27.8 45.4 27.2 45.3 26.7 45.2C26.5 45.2 26.3 45.1 26.1 45.1C26 45.1 25.9 45.1 25.9 45.1C25.7 45.1 25.5 45 25.3 45H25.2C24.9 44.9 24.7 44.9 24.5 44.8C24.2 44.7 24 44.7 23.8 44.6C23.7 44.6 23.6 44.5 23.5 44.5C23.4 44.5 23.3 44.4 23.2 44.4C22.8 44.3 22.5 44.1 22.2 44C21.9 43.9 21.7 43.7 21.4 43.6C21.3 43.5 21.1 43.4 21 43.4C20.6 43.1 20.3 42.9 20 42.6L19.9 42.5C19.3 41.9 19 41.2 19 40.5C19 39.9 19.3 39.3 19.7 38.7C19.8 38.6 19.8 38.6 19.9 38.5L20 38.6C20.7 39.4 21.8 40 23.2 40.5C23.3 40.5 23.4 40.6 23.5 40.6C23.6 40.6 23.7 40.7 23.8 40.7C25.7 41.4 28.1 41.7 30.8 41.7C30.9 41.7 31 41.7 31.1 41.7C33.1 41.7 35 41.4 36.6 41C37.2 40.8 37.8 40.7 38.3 40.5C39.7 40 40.8 39.3 41.6 38.5C42 38.9 42.3 39.5 42.3 40.2Z" stroke="#009EE3" stroke-width="2" stroke-miterlimit="10" stroke-linecap="round" stroke-linejoin="round"/>
<path d="M42.2996 44.2C42.2996 44.6 42.1996 45 41.9996 45.4C41.8996 45.7 41.6996 45.9 41.3996 46.2C40.6996 47 39.5996 47.7 38.0996 48.2C36.0996 49 33.3996 49.4 30.5996 49.4C30.2996 49.4 30.0996 49.4 29.7996 49.4C29.5996 49.4 29.4996 49.4 29.2996 49.4C28.9996 49.4 28.7996 49.4 28.4996 49.4C28.1996 49.4 27.7996 49.3 27.4996 49.3C27.1996 49.3 26.9996 49.2 26.6996 49.2C26.4996 49.2 26.2996 49.1 26.1996 49.1C25.7996 49 25.4996 49 25.0996 48.9C24.8996 48.9 24.6996 48.8 24.4996 48.7C24.4996 48.7 24.4996 48.7 24.3996 48.7C24.1996 48.7 24.0996 48.6 23.9996 48.6C23.8996 48.6 23.7996 48.6 23.7996 48.5C23.6996 48.5 23.5996 48.4 23.4996 48.4C23.3996 48.4 23.2996 48.3 23.1996 48.3C21.7996 47.8 20.7996 47.1 20.0996 46.4L19.9996 46.3C19.3996 45.7 19.0996 45 19.0996 44.3C19.0996 43.7 19.3996 43.1 19.7996 42.5C19.7996 42.4 19.8996 42.4 19.9996 42.3L20.0996 42.4C20.3996 42.7 20.6996 42.9 21.0996 43.2C21.1996 43.3 21.3996 43.4 21.4996 43.4C21.7996 43.6 21.9996 43.7 22.2996 43.8C22.5996 44 22.9996 44.1 23.2996 44.2C23.3996 44.2 23.4996 44.3 23.5996 44.3C23.6996 44.3 23.7996 44.4 23.8996 44.4C24.0996 44.5 24.3996 44.6 24.5996 44.6C24.7996 44.7 25.0996 44.7 25.2996 44.8H25.3996C25.5996 44.8 25.7996 44.9 25.9996 44.9C26.0996 44.9 26.1996 44.9 26.1996 44.9C26.3996 44.9 26.5996 45 26.7996 45C27.3996 45.1 27.8996 45.2 28.4996 45.2C28.6996 45.2 28.9996 45.2 29.1996 45.2C29.6996 45.2 30.0996 45.2 30.5996 45.2C32.6996 45.2 34.6996 44.9 36.4996 44.5C37.0996 44.3 37.5996 44.2 38.1996 44C39.5996 43.5 40.6996 42.8 41.4996 42C41.9996 42.9 42.2996 43.5 42.2996 44.2Z" stroke="#009EE3" stroke-width="2" stroke-miterlimit="10" stroke-linecap="round" stroke-linejoin="round"/>
<path d="M42.3 48.2001C42.3 48.9001 42 49.6001 41.4 50.2001C40.7 51.0001 39.6 51.7001 38.1 52.2001C36.1 53.0001 33.4 53.4001 30.6 53.4001C29.9 53.4001 29.2 53.4001 28.5 53.3001C28.2 53.3001 27.8 53.2001 27.5 53.2001C27.2 53.2001 26.9 53.1001 26.6 53.1001C26.3 53.1001 26 53.0001 25.8 52.9001C25.5 52.9001 25.3 52.8001 25 52.7001C24.7 52.6001 24.5 52.6001 24.2 52.5001C24.1 52.5001 24.1 52.5001 24.1 52.5001C23.9 52.4001 23.6 52.3001 23.4 52.3001C23.3 52.3001 23.2 52.2001 23.1 52.2001C21.7 51.7001 20.7 51.0001 20 50.3001L19.9 50.2001C19.3 49.6001 19 48.9001 19 48.2001C19 47.6001 19.3 47.0001 19.7 46.4001C19.7 46.3001 19.8 46.3001 19.9 46.2001L20 46.3001C20.7 47.1001 21.8 47.7001 23.1 48.2001C23.2 48.2001 23.3 48.3001 23.4 48.3001C23.5 48.3001 23.6 48.4001 23.7 48.4001C23.8 48.4001 23.8 48.5001 23.9 48.5001C24 48.5001 24.2 48.6001 24.3 48.6001C24.3 48.6001 24.3 48.6001 24.4 48.6001C24.6 48.7001 24.8 48.7001 25 48.8001C25.4 48.9001 25.7 49.0001 26.1 49.0001C26.3 49.0001 26.5 49.1001 26.6 49.1001C26.9 49.2001 27.1 49.2001 27.4 49.2001C27.7 49.2001 28.1 49.3001 28.4 49.3001C28.7 49.3001 28.9 49.3001 29.2 49.3001C29.4 49.3001 29.5 49.3001 29.7 49.3001C30 49.3001 30.2 49.3001 30.5 49.3001C33.4 49.3001 36 48.8001 38 48.1001C39.4 47.6001 40.5 46.9001 41.3 46.1001C42 46.9001 42.3 47.5001 42.3 48.2001Z" stroke="#009EE3" stroke-width="2" stroke-miterlimit="10" stroke-linecap="round" stroke-linejoin="round"/>
<path d="M42.3 52.2001C42.3 52.9001 42 53.6001 41.4 54.2001C39.6 56.1001 35.5 57.5 30.6 57.5C30 57.5 29.5 57.5 29 57.5C28.9 57.5 28.7 57.5 28.6 57.5C28.4 57.5 28.2 57.5001 28 57.4001C27.1 57.3001 26.3 57.2 25.6 57C25.3 57 25.1 56.9 24.8 56.8C24.1 56.6 23.5 56.4001 22.9 56.2001C22.8 56.2001 22.6 56.1 22.5 56C22.4 55.9 22.3 55.9001 22.2 55.9001C22 55.8001 21.8 55.7 21.7 55.6C21.6 55.5 21.4 55.5001 21.3 55.4001C21.2 55.3001 21 55.2 20.9 55.1C20.7 55 20.6 54.8001 20.4 54.7001C20.3 54.6001 20.1 54.5001 20 54.4001L19.9 54.3C19.3 53.7 19 53 19 52.3C19 51.7 19.3 51.1 19.7 50.5C19.7 50.4 19.8 50.4 19.9 50.3L20 50.4001C20.7 51.2001 21.8 51.8 23.1 52.3C23.2 52.3 23.3 52.4001 23.4 52.4001C23.6 52.5001 23.9 52.6 24.1 52.6H24.2C24.5 52.7 24.7 52.8 25 52.8C25.3 52.9 25.5 52.9 25.8 53C26.1 53.1 26.4 53.1001 26.6 53.2001C26.9 53.2001 27.2 53.3 27.5 53.3C27.8 53.3 28.2 53.4001 28.5 53.4001C29.2 53.5001 29.9 53.5 30.6 53.5C33.5 53.5 36.1 53 38.1 52.3C39.5 51.8 40.6 51.1 41.4 50.3C42 50.9 42.3 51.5001 42.3 52.2001Z" stroke="#009EE3" stroke-width="2" stroke-miterlimit="10" stroke-linecap="round" stroke-linejoin="round"/>
<path d="M42.3004 56.2001C42.3004 59.1001 37.1004 61.5001 30.6004 61.5001C24.1004 61.5001 18.9004 59.2001 18.9004 56.2001C18.9004 55.6001 19.2004 55.0001 19.6004 54.4001C19.6004 54.3001 19.7004 54.3001 19.8004 54.2001L19.9004 54.3001C20.0004 54.4001 20.1004 54.5001 20.3004 54.6001C20.5004 54.7001 20.6004 54.9001 20.8004 55.0001C20.9004 55.1001 21.0004 55.2001 21.2004 55.3001C21.4004 55.4001 21.5004 55.5001 21.6004 55.5001C21.8004 55.6001 22.0004 55.7001 22.1004 55.8001C22.2004 55.8001 22.3004 55.9001 22.4004 55.9001C22.5004 56.0001 22.7004 56.0001 22.8004 56.1001C23.4004 56.3001 24.0004 56.6001 24.7004 56.7001C24.9004 56.8001 25.2004 56.8001 25.5004 56.9001C26.3004 57.1001 27.1004 57.2001 27.9004 57.3001C28.1004 57.3001 28.3004 57.3001 28.5004 57.4001C28.6004 57.4001 28.7004 57.4001 28.9004 57.4001C29.4004 57.4001 30.0004 57.4001 30.5004 57.4001C35.4004 57.4001 39.5004 56.1001 41.3004 54.1001C42.0004 54.9001 42.3004 55.5001 42.3004 56.2001Z" stroke="#009EE3" stroke-width="2" stroke-miterlimit="10" stroke-linecap="round" stroke-linejoin="round"/>
</svg>
